<mxfile host="65bd71144e">
    <diagram id="Z8TSJrFf5ljXng2vy37_" name="Страница — 1">
        <mxGraphModel dx="889" dy="897" grid="1" gridSize="10" guides="1" tooltips="1" connect="1" arrows="1" fold="1" page="1" pageScale="1" pageWidth="827" pageHeight="1169" math="0" shadow="0">
            <root>
                <mxCell id="0"/>
                <mxCell id="1" parent="0"/>
                <mxCell id="78" value="&lt;span style=&quot;color: rgb(0, 0, 255);&quot;&gt;polishing&lt;/span&gt;" style="rounded=1;whiteSpace=wrap;html=1;fillColor=none;strokeColor=#0000FF;fontColor=#0000FF;labelPosition=center;verticalLabelPosition=top;align=right;verticalAlign=bottom;" vertex="1" parent="1">
                    <mxGeometry x="140" y="460" width="600" height="260" as="geometry"/>
                </mxCell>
                <mxCell id="79" value="postproc" style="rounded=1;whiteSpace=wrap;html=1;fillColor=none;strokeColor=#0000FF;fontColor=#0000FF;labelPosition=center;verticalLabelPosition=bottom;align=left;verticalAlign=top;" vertex="1" parent="1">
                    <mxGeometry x="150" y="730" width="590" height="72.25" as="geometry"/>
                </mxCell>
                <mxCell id="75" value="ont_reads_preproc" style="rounded=1;whiteSpace=wrap;html=1;fillColor=none;strokeColor=#0000FF;fontColor=#0000FF;labelPosition=center;verticalLabelPosition=top;align=left;verticalAlign=bottom;" vertex="1" parent="1">
                    <mxGeometry x="45" y="100" width="325" height="170" as="geometry"/>
                </mxCell>
                <mxCell id="77" value="&lt;span style=&quot;color: rgb(0, 0, 255);&quot;&gt;assembling&lt;/span&gt;" style="rounded=1;whiteSpace=wrap;html=1;fillColor=none;strokeColor=#0000FF;fontColor=#0000FF;labelPosition=center;verticalLabelPosition=bottom;align=left;verticalAlign=top;" vertex="1" parent="1">
                    <mxGeometry x="40" y="280" width="408" height="160" as="geometry"/>
                </mxCell>
                <mxCell id="76" value="&lt;span style=&quot;color: rgb(0, 0, 255);&quot;&gt;short_reads_preproc&lt;/span&gt;" style="rounded=1;whiteSpace=wrap;html=1;fillColor=none;strokeColor=#0000FF;fontColor=#0000FF;labelPosition=center;verticalLabelPosition=top;align=left;verticalAlign=bottom;" vertex="1" parent="1">
                    <mxGeometry x="470" y="110" width="270" height="140" as="geometry"/>
                </mxCell>
                <mxCell id="3" value="Short reads" style="rounded=0;whiteSpace=wrap;html=1;fontStyle=1;fillColor=#00FF80;" vertex="1" parent="1">
                    <mxGeometry x="550" y="40" width="120" height="40" as="geometry"/>
                </mxCell>
                <mxCell id="4" value="ONT reads" style="rounded=0;whiteSpace=wrap;html=1;fontStyle=1;fillColor=#00FF80;" vertex="1" parent="1">
                    <mxGeometry x="180" y="40" width="120" height="40" as="geometry"/>
                </mxCell>
                <mxCell id="5" value="(optional)&lt;div&gt;Subsampling&lt;/div&gt;" style="rounded=1;whiteSpace=wrap;html=1;fontStyle=1;fillColor=#3399FF;" vertex="1" parent="1">
                    <mxGeometry x="180" y="120" width="120" height="40" as="geometry"/>
                </mxCell>
                <mxCell id="6" value="(optional)&lt;div&gt;Subsampling&lt;/div&gt;" style="rounded=1;whiteSpace=wrap;html=1;fontStyle=1;fillColor=#3399FF;" vertex="1" parent="1">
                    <mxGeometry x="550" y="120" width="120" height="40" as="geometry"/>
                </mxCell>
                <mxCell id="7" value="Preprocessing" style="rounded=1;whiteSpace=wrap;html=1;fontStyle=1;fillColor=#3399FF;" vertex="1" parent="1">
                    <mxGeometry x="180" y="200" width="120" height="40" as="geometry"/>
                </mxCell>
                <mxCell id="8" value="Preprocessing &amp;amp; QC" style="rounded=1;whiteSpace=wrap;html=1;fontStyle=1;fillColor=#3399FF;" vertex="1" parent="1">
                    <mxGeometry x="550" y="200" width="120" height="40" as="geometry"/>
                </mxCell>
                <mxCell id="9" value="asm&lt;div&gt;&lt;font style=&quot;color: rgb(255, 179, 102);&quot;&gt;Flye&lt;/font&gt;&lt;/div&gt;" style="rounded=1;whiteSpace=wrap;html=1;fontStyle=1;fillColor=#3399FF;" vertex="1" parent="1">
                    <mxGeometry x="95" y="290" width="70" height="40" as="geometry"/>
                </mxCell>
                <mxCell id="11" value="asm&lt;div&gt;&lt;font style=&quot;color: rgb(255, 179, 102);&quot;&gt;Canu&lt;/font&gt;&lt;/div&gt;" style="rounded=1;whiteSpace=wrap;html=1;fontStyle=1;fillColor=#3399FF;" vertex="1" parent="1">
                    <mxGeometry x="205" y="290" width="70" height="40" as="geometry"/>
                </mxCell>
                <mxCell id="12" value="asm&lt;div&gt;&lt;font style=&quot;color: rgb(255, 179, 102);&quot;&gt;Shasta&lt;/font&gt;&lt;/div&gt;" style="rounded=1;whiteSpace=wrap;html=1;fontStyle=1;fillColor=#3399FF;" vertex="1" parent="1">
                    <mxGeometry x="315" y="290" width="70" height="40" as="geometry"/>
                </mxCell>
                <mxCell id="13" value="Polishing" style="rounded=1;whiteSpace=wrap;html=1;fontStyle=1;fillColor=#3399FF;" vertex="1" parent="1">
                    <mxGeometry x="180" y="562.25" width="120" height="40" as="geometry"/>
                </mxCell>
                <mxCell id="14" value="Scaffolding" style="rounded=1;whiteSpace=wrap;html=1;fontStyle=1;fillColor=#3399FF;" vertex="1" parent="1">
                    <mxGeometry x="180" y="472.25" width="120" height="40" as="geometry"/>
                </mxCell>
                <mxCell id="15" value="asm QC" style="rounded=1;whiteSpace=wrap;html=1;fontStyle=1;fillColor=#3399FF;" vertex="1" parent="1">
                    <mxGeometry x="340" y="750" width="66" height="40" as="geometry"/>
                </mxCell>
                <mxCell id="16" value="" style="endArrow=classic;html=1;exitX=0.5;exitY=1;exitDx=0;exitDy=0;entryX=0.5;entryY=0;entryDx=0;entryDy=0;" edge="1" parent="1" source="4" target="5">
                    <mxGeometry width="50" height="50" relative="1" as="geometry">
                        <mxPoint x="380" y="380" as="sourcePoint"/>
                        <mxPoint x="430" y="330" as="targetPoint"/>
                    </mxGeometry>
                </mxCell>
                <mxCell id="17" value="" style="endArrow=classic;html=1;entryX=0.5;entryY=0;entryDx=0;entryDy=0;exitX=0.5;exitY=1;exitDx=0;exitDy=0;" edge="1" parent="1" source="5" target="7">
                    <mxGeometry width="50" height="50" relative="1" as="geometry">
                        <mxPoint x="380" y="150" as="sourcePoint"/>
                        <mxPoint x="250" y="130" as="targetPoint"/>
                    </mxGeometry>
                </mxCell>
                <mxCell id="18" value="" style="endArrow=classic;html=1;exitX=0.5;exitY=1;exitDx=0;exitDy=0;entryX=0.5;entryY=0;entryDx=0;entryDy=0;" edge="1" parent="1" source="7" target="11">
                    <mxGeometry width="50" height="50" relative="1" as="geometry">
                        <mxPoint x="260" y="100" as="sourcePoint"/>
                        <mxPoint x="240" y="270" as="targetPoint"/>
                    </mxGeometry>
                </mxCell>
                <mxCell id="19" value="" style="endArrow=classic;html=1;exitX=0.5;exitY=1;exitDx=0;exitDy=0;entryX=0.5;entryY=0;entryDx=0;entryDy=0;" edge="1" parent="1" source="7" target="12">
                    <mxGeometry width="50" height="50" relative="1" as="geometry">
                        <mxPoint x="250" y="250" as="sourcePoint"/>
                        <mxPoint x="250" y="300" as="targetPoint"/>
                    </mxGeometry>
                </mxCell>
                <mxCell id="20" value="" style="endArrow=classic;html=1;exitX=0.5;exitY=1;exitDx=0;exitDy=0;entryX=0.5;entryY=0;entryDx=0;entryDy=0;" edge="1" parent="1" source="7" target="9">
                    <mxGeometry width="50" height="50" relative="1" as="geometry">
                        <mxPoint x="260" y="260" as="sourcePoint"/>
                        <mxPoint x="260" y="310" as="targetPoint"/>
                    </mxGeometry>
                </mxCell>
                <mxCell id="22" value="Metassembling" style="rounded=1;whiteSpace=wrap;html=1;fontStyle=1;fillColor=#3399FF;" vertex="1" parent="1">
                    <mxGeometry x="180" y="380" width="120" height="40" as="geometry"/>
                </mxCell>
                <mxCell id="23" value="" style="endArrow=classic;html=1;exitX=0.5;exitY=1;exitDx=0;exitDy=0;entryX=0.5;entryY=0;entryDx=0;entryDy=0;" edge="1" parent="1" source="9" target="22">
                    <mxGeometry width="50" height="50" relative="1" as="geometry">
                        <mxPoint x="250" y="250" as="sourcePoint"/>
                        <mxPoint x="140" y="300" as="targetPoint"/>
                    </mxGeometry>
                </mxCell>
                <mxCell id="24" value="" style="endArrow=classic;html=1;entryX=0.5;entryY=0;entryDx=0;entryDy=0;exitX=0.5;exitY=1;exitDx=0;exitDy=0;" edge="1" parent="1" source="11" target="22">
                    <mxGeometry width="50" height="50" relative="1" as="geometry">
                        <mxPoint x="330" y="360" as="sourcePoint"/>
                        <mxPoint x="250" y="300" as="targetPoint"/>
                    </mxGeometry>
                </mxCell>
                <mxCell id="25" value="" style="endArrow=classic;html=1;exitX=0.5;exitY=1;exitDx=0;exitDy=0;entryX=0.5;entryY=0;entryDx=0;entryDy=0;" edge="1" parent="1" source="12" target="22">
                    <mxGeometry width="50" height="50" relative="1" as="geometry">
                        <mxPoint x="260" y="260" as="sourcePoint"/>
                        <mxPoint x="260" y="310" as="targetPoint"/>
                    </mxGeometry>
                </mxCell>
                <mxCell id="26" value="" style="endArrow=classic;html=1;exitX=0.5;exitY=1;exitDx=0;exitDy=0;entryX=0.5;entryY=0;entryDx=0;entryDy=0;" edge="1" parent="1" source="22" target="14">
                    <mxGeometry width="50" height="50" relative="1" as="geometry">
                        <mxPoint x="270" y="270" as="sourcePoint"/>
                        <mxPoint x="270" y="320" as="targetPoint"/>
                    </mxGeometry>
                </mxCell>
                <mxCell id="28" value="" style="endArrow=classic;html=1;exitX=1;exitY=0.5;exitDx=0;exitDy=0;entryX=0;entryY=0.5;entryDx=0;entryDy=0;" edge="1" parent="1" source="43" target="32">
                    <mxGeometry width="50" height="50" relative="1" as="geometry">
                        <mxPoint x="450" y="690" as="sourcePoint"/>
                        <mxPoint x="360" y="680" as="targetPoint"/>
                    </mxGeometry>
                </mxCell>
                <mxCell id="29" value="" style="endArrow=classic;html=1;exitX=0.5;exitY=1;exitDx=0;exitDy=0;entryX=0.5;entryY=0;entryDx=0;entryDy=0;" edge="1" parent="1" source="3" target="6">
                    <mxGeometry width="50" height="50" relative="1" as="geometry">
                        <mxPoint x="406" y="110" as="sourcePoint"/>
                        <mxPoint x="406" y="162" as="targetPoint"/>
                    </mxGeometry>
                </mxCell>
                <mxCell id="30" value="" style="endArrow=classic;html=1;exitX=0.5;exitY=1;exitDx=0;exitDy=0;entryX=0.5;entryY=0;entryDx=0;entryDy=0;" edge="1" parent="1" source="6" target="8">
                    <mxGeometry width="50" height="50" relative="1" as="geometry">
                        <mxPoint x="416" y="120" as="sourcePoint"/>
                        <mxPoint x="416" y="172" as="targetPoint"/>
                    </mxGeometry>
                </mxCell>
                <mxCell id="31" value="" style="endArrow=classic;html=1;entryX=1;entryY=0.5;entryDx=0;entryDy=0;edgeStyle=orthogonalEdgeStyle;exitX=0;exitY=0.5;exitDx=0;exitDy=0;" edge="1" parent="1" source="62" target="13">
                    <mxGeometry width="50" height="50" relative="1" as="geometry">
                        <mxPoint x="510" y="550" as="sourcePoint"/>
                        <mxPoint x="290" y="522" as="targetPoint"/>
                    </mxGeometry>
                </mxCell>
                <mxCell id="32" value="FASTA" style="rounded=0;whiteSpace=wrap;html=1;fontStyle=1;fillColor=#999900;" vertex="1" parent="1">
                    <mxGeometry x="380" y="660" width="120" height="40" as="geometry"/>
                </mxCell>
                <mxCell id="33" value="" style="endArrow=classic;html=1;entryX=0.5;entryY=0;entryDx=0;entryDy=0;edgeStyle=orthogonalEdgeStyle;exitX=0.5;exitY=1;exitDx=0;exitDy=0;" edge="1" parent="1" source="32" target="15">
                    <mxGeometry width="50" height="50" relative="1" as="geometry">
                        <mxPoint x="410" y="880" as="sourcePoint"/>
                        <mxPoint x="530" y="680" as="targetPoint"/>
                    </mxGeometry>
                </mxCell>
                <mxCell id="34" value="1" style="rounded=0;whiteSpace=wrap;html=1;fontStyle=1;fontSize=16;fillColor=#FF66B3;" vertex="1" parent="1">
                    <mxGeometry x="670" y="120" width="30" height="30" as="geometry"/>
                </mxCell>
                <mxCell id="35" value="1a" style="rounded=0;whiteSpace=wrap;html=1;fontStyle=1;fontSize=16;fillColor=#FF66B3;" vertex="1" parent="1">
                    <mxGeometry x="300" y="120" width="30" height="30" as="geometry"/>
                </mxCell>
                <mxCell id="36" value="2b" style="rounded=0;whiteSpace=wrap;html=1;fontStyle=1;fontSize=16;fillColor=#FF66B3;" vertex="1" parent="1">
                    <mxGeometry x="670" y="180" width="26" height="30" as="geometry"/>
                </mxCell>
                <mxCell id="37" value="2a" style="rounded=0;whiteSpace=wrap;html=1;fontStyle=1;fontSize=16;fillColor=#FF66B3;" vertex="1" parent="1">
                    <mxGeometry x="300" y="180" width="26" height="30" as="geometry"/>
                </mxCell>
                <mxCell id="38" value="3a" style="rounded=0;whiteSpace=wrap;html=1;fontStyle=1;fontSize=16;fillColor=#FF66B3;" vertex="1" parent="1">
                    <mxGeometry x="165" y="295" width="26" height="30" as="geometry"/>
                </mxCell>
                <mxCell id="39" value="3b" style="rounded=0;whiteSpace=wrap;html=1;fontStyle=1;fontSize=16;fillColor=#FF66B3;" vertex="1" parent="1">
                    <mxGeometry x="274" y="295" width="26" height="30" as="geometry"/>
                </mxCell>
                <mxCell id="40" value="3c" style="rounded=0;whiteSpace=wrap;html=1;fontStyle=1;fontSize=16;fillColor=#FF66B3;" vertex="1" parent="1">
                    <mxGeometry x="385" y="295" width="26" height="30" as="geometry"/>
                </mxCell>
                <mxCell id="41" value="4" style="rounded=0;whiteSpace=wrap;html=1;fontStyle=1;fontSize=16;fillColor=#FF66B3;" vertex="1" parent="1">
                    <mxGeometry x="300" y="385" width="26" height="30" as="geometry"/>
                </mxCell>
                <mxCell id="42" value="5" style="rounded=0;whiteSpace=wrap;html=1;fontStyle=1;fontSize=16;fillColor=#FF66B3;" vertex="1" parent="1">
                    <mxGeometry x="300" y="470" width="26" height="20" as="geometry"/>
                </mxCell>
                <mxCell id="43" value="Re-Scaffolding" style="rounded=1;whiteSpace=wrap;html=1;fontStyle=1;fillColor=#3399FF;" vertex="1" parent="1">
                    <mxGeometry x="180" y="660" width="120" height="40" as="geometry"/>
                </mxCell>
                <mxCell id="44" value="" style="endArrow=classic;html=1;entryX=0.5;entryY=0;entryDx=0;entryDy=0;exitX=0.5;exitY=1;exitDx=0;exitDy=0;" edge="1" parent="1" source="13" target="43">
                    <mxGeometry width="50" height="50" relative="1" as="geometry">
                        <mxPoint x="250" y="522" as="sourcePoint"/>
                        <mxPoint x="250" y="572" as="targetPoint"/>
                    </mxGeometry>
                </mxCell>
                <mxCell id="45" value="6" style="rounded=0;whiteSpace=wrap;html=1;fontStyle=1;fontSize=16;fillColor=#FF66B3;" vertex="1" parent="1">
                    <mxGeometry x="670" y="480" width="26" height="20" as="geometry"/>
                </mxCell>
                <mxCell id="46" value="7" style="rounded=0;whiteSpace=wrap;html=1;fontStyle=1;fontSize=16;fillColor=#FF66B3;" vertex="1" parent="1">
                    <mxGeometry x="300" y="532.25" width="26" height="30" as="geometry"/>
                </mxCell>
                <mxCell id="47" value="9b" style="rounded=0;whiteSpace=wrap;html=1;fontStyle=1;fontSize=16;fillColor=#FF66B3;" vertex="1" parent="1">
                    <mxGeometry x="314" y="740" width="26" height="20" as="geometry"/>
                </mxCell>
                <mxCell id="48" value="" style="endArrow=classic;html=1;exitX=0;exitY=0.5;exitDx=0;exitDy=0;entryX=1;entryY=0.5;entryDx=0;entryDy=0;" edge="1" parent="1" source="8" target="7">
                    <mxGeometry width="50" height="50" relative="1" as="geometry">
                        <mxPoint x="620" y="170" as="sourcePoint"/>
                        <mxPoint x="620" y="210" as="targetPoint"/>
                    </mxGeometry>
                </mxCell>
                <mxCell id="51" value="QC&lt;div&gt;&lt;span style=&quot;color: rgb(0, 0, 0);&quot;&gt;ONT FQ&lt;/span&gt;&lt;/div&gt;" style="rounded=1;whiteSpace=wrap;html=1;fontStyle=1;fillColor=#3399FF;" vertex="1" parent="1">
                    <mxGeometry x="50" y="200" width="70" height="40" as="geometry"/>
                </mxCell>
                <mxCell id="54" value="" style="endArrow=classic;html=1;exitX=0;exitY=0.5;exitDx=0;exitDy=0;entryX=1;entryY=0.5;entryDx=0;entryDy=0;edgeStyle=orthogonalEdgeStyle;" edge="1" parent="1" source="7" target="51">
                    <mxGeometry width="50" height="50" relative="1" as="geometry">
                        <mxPoint x="630" y="260" as="sourcePoint"/>
                        <mxPoint x="320" y="602" as="targetPoint"/>
                    </mxGeometry>
                </mxCell>
                <mxCell id="55" value="9a" style="rounded=0;whiteSpace=wrap;html=1;fontStyle=1;fontSize=16;fillColor=#FF66B3;" vertex="1" parent="1">
                    <mxGeometry x="117" y="170" width="26" height="30" as="geometry"/>
                </mxCell>
                <mxCell id="57" value="draft&lt;div&gt;FASTA&lt;/div&gt;" style="rounded=0;whiteSpace=wrap;html=1;fontStyle=1;fillColor=#999900;" vertex="1" parent="1">
                    <mxGeometry x="380" y="472.25" width="120" height="40" as="geometry"/>
                </mxCell>
                <mxCell id="58" value="" style="endArrow=classic;html=1;exitX=1;exitY=0.5;exitDx=0;exitDy=0;entryX=0;entryY=0.5;entryDx=0;entryDy=0;" edge="1" parent="1" source="14" target="57">
                    <mxGeometry width="50" height="50" relative="1" as="geometry">
                        <mxPoint x="250" y="430" as="sourcePoint"/>
                        <mxPoint x="250" y="482" as="targetPoint"/>
                    </mxGeometry>
                </mxCell>
                <mxCell id="59" value="Aligning to draft genome" style="rounded=1;whiteSpace=wrap;html=1;fontStyle=1;fillColor=#3399FF;" vertex="1" parent="1">
                    <mxGeometry x="550" y="472.25" width="120" height="40" as="geometry"/>
                </mxCell>
                <mxCell id="60" value="" style="endArrow=classic;html=1;exitX=0.5;exitY=1;exitDx=0;exitDy=0;entryX=0.5;entryY=0;entryDx=0;entryDy=0;" edge="1" parent="1" source="8" target="59">
                    <mxGeometry width="50" height="50" relative="1" as="geometry">
                        <mxPoint x="620" y="170" as="sourcePoint"/>
                        <mxPoint x="620" y="210" as="targetPoint"/>
                    </mxGeometry>
                </mxCell>
                <mxCell id="61" value="" style="endArrow=classic;html=1;exitX=1;exitY=0.5;exitDx=0;exitDy=0;entryX=0;entryY=0.5;entryDx=0;entryDy=0;" edge="1" parent="1" source="57" target="59">
                    <mxGeometry width="50" height="50" relative="1" as="geometry">
                        <mxPoint x="310" y="502" as="sourcePoint"/>
                        <mxPoint x="390" y="502" as="targetPoint"/>
                    </mxGeometry>
                </mxCell>
                <mxCell id="62" value="BAM" style="rounded=0;whiteSpace=wrap;html=1;fontStyle=1;fillColor=#CC6600;" vertex="1" parent="1">
                    <mxGeometry x="550" y="562.25" width="120" height="40" as="geometry"/>
                </mxCell>
                <mxCell id="63" value="" style="endArrow=classic;html=1;exitX=0.5;exitY=1;exitDx=0;exitDy=0;entryX=0.5;entryY=0;entryDx=0;entryDy=0;" edge="1" parent="1" source="59" target="62">
                    <mxGeometry width="50" height="50" relative="1" as="geometry">
                        <mxPoint x="510" y="502" as="sourcePoint"/>
                        <mxPoint x="560" y="502" as="targetPoint"/>
                    </mxGeometry>
                </mxCell>
                <mxCell id="64" value="8" style="rounded=0;whiteSpace=wrap;html=1;fontStyle=1;fontSize=16;fillColor=#FF66B3;" vertex="1" parent="1">
                    <mxGeometry x="300" y="630" width="26" height="30" as="geometry"/>
                </mxCell>
                <mxCell id="66" value="Annotation" style="rounded=1;whiteSpace=wrap;html=1;fontStyle=1;fillColor=#3399FF;" vertex="1" parent="1">
                    <mxGeometry x="448" y="750" width="120" height="40" as="geometry"/>
                </mxCell>
                <mxCell id="67" value="10" style="rounded=0;whiteSpace=wrap;html=1;fontStyle=1;fontSize=16;fillColor=#FF66B3;" vertex="1" parent="1">
                    <mxGeometry x="568" y="740" width="26" height="20" as="geometry"/>
                </mxCell>
                <mxCell id="68" value="&amp;nbsp;REF FASTA" style="rounded=0;whiteSpace=wrap;html=1;fontStyle=1;fillColor=#FFFF99;" vertex="1" parent="1">
                    <mxGeometry x="165" y="760" width="120" height="20" as="geometry"/>
                </mxCell>
                <mxCell id="69" value="&amp;nbsp;REF GFF" style="rounded=0;whiteSpace=wrap;html=1;fontStyle=1;fillColor=#FFFF99;" vertex="1" parent="1">
                    <mxGeometry x="596" y="760" width="120" height="20" as="geometry"/>
                </mxCell>
                <mxCell id="70" value="" style="endArrow=classic;html=1;entryX=0;entryY=0.5;entryDx=0;entryDy=0;exitX=1;exitY=0.5;exitDx=0;exitDy=0;" edge="1" parent="1" source="68" target="15">
                    <mxGeometry width="50" height="50" relative="1" as="geometry">
                        <mxPoint x="700" y="700" as="sourcePoint"/>
                        <mxPoint x="620" y="572" as="targetPoint"/>
                    </mxGeometry>
                </mxCell>
                <mxCell id="71" value="" style="endArrow=classic;html=1;exitX=0;exitY=0.5;exitDx=0;exitDy=0;entryX=1;entryY=0.5;entryDx=0;entryDy=0;edgeStyle=orthogonalEdgeStyle;" edge="1" parent="1" source="69" target="66">
                    <mxGeometry width="50" height="50" relative="1" as="geometry">
                        <mxPoint x="630" y="532" as="sourcePoint"/>
                        <mxPoint x="630" y="582" as="targetPoint"/>
                    </mxGeometry>
                </mxCell>
                <mxCell id="72" value="" style="endArrow=classic;html=1;exitX=0.5;exitY=1;exitDx=0;exitDy=0;entryX=0.5;entryY=0;entryDx=0;entryDy=0;edgeStyle=orthogonalEdgeStyle;" edge="1" parent="1" source="32" target="66">
                    <mxGeometry width="50" height="50" relative="1" as="geometry">
                        <mxPoint x="640" y="542" as="sourcePoint"/>
                        <mxPoint x="640" y="592" as="targetPoint"/>
                    </mxGeometry>
                </mxCell>
            </root>
        </mxGraphModel>
    </diagram>
</mxfile>